<mxfile host="app.diagrams.net" modified="2023-11-09T12:48:12.562Z" agent="Mozilla/5.0 (X11; Ubuntu; Linux x86_64; rv:109.0) Gecko/20100101 Firefox/117.0" etag="Oy50iTQEaGc4jijhWLCg" version="22.0.8" type="device">
  <diagram id="C5RBs43oDa-KdzZeNtuy" name="Page-1">
    <mxGraphModel dx="4994" dy="3551" grid="1" gridSize="10" guides="1" tooltips="1" connect="1" arrows="1" fold="1" page="1" pageScale="1" pageWidth="827" pageHeight="1169" math="0" shadow="0">
      <root>
        <mxCell id="WIyWlLk6GJQsqaUBKTNV-0" />
        <mxCell id="WIyWlLk6GJQsqaUBKTNV-1" parent="WIyWlLk6GJQsqaUBKTNV-0" />
        <mxCell id="c9i3LPFv9_K7PuiOlfbB-205" value="" style="group" vertex="1" connectable="0" parent="WIyWlLk6GJQsqaUBKTNV-1">
          <mxGeometry x="-380" y="-180" width="1910" height="1740" as="geometry" />
        </mxCell>
        <mxCell id="c9i3LPFv9_K7PuiOlfbB-0" value="" style="rounded=0;whiteSpace=wrap;html=1;" vertex="1" parent="c9i3LPFv9_K7PuiOlfbB-205">
          <mxGeometry y="130" width="1910" height="1610" as="geometry" />
        </mxCell>
        <mxCell id="c9i3LPFv9_K7PuiOlfbB-1" value="&lt;font style=&quot;font-size: 20px;&quot;&gt;Pipeline Tool&lt;/font&gt;" style="text;html=1;strokeColor=none;fillColor=none;align=center;verticalAlign=middle;whiteSpace=wrap;rounded=0;" vertex="1" parent="c9i3LPFv9_K7PuiOlfbB-205">
          <mxGeometry x="10" y="140" width="160" height="30" as="geometry" />
        </mxCell>
        <mxCell id="c9i3LPFv9_K7PuiOlfbB-2" value="Model, number of gpu, configuration" style="rounded=0;whiteSpace=wrap;html=1;" vertex="1" parent="c9i3LPFv9_K7PuiOlfbB-205">
          <mxGeometry x="160" y="50" width="120" height="60" as="geometry" />
        </mxCell>
        <mxCell id="c9i3LPFv9_K7PuiOlfbB-3" value="Use torch.fx to generate the symbolic trace of the model" style="rounded=0;whiteSpace=wrap;html=1;" vertex="1" parent="c9i3LPFv9_K7PuiOlfbB-205">
          <mxGeometry x="135" y="210" width="170" height="80" as="geometry" />
        </mxCell>
        <mxCell id="c9i3LPFv9_K7PuiOlfbB-4" style="edgeStyle=orthogonalEdgeStyle;rounded=0;orthogonalLoop=1;jettySize=auto;html=1;exitX=0.5;exitY=1;exitDx=0;exitDy=0;entryX=0.5;entryY=0;entryDx=0;entryDy=0;" edge="1" parent="c9i3LPFv9_K7PuiOlfbB-205" source="c9i3LPFv9_K7PuiOlfbB-2" target="c9i3LPFv9_K7PuiOlfbB-3">
          <mxGeometry relative="1" as="geometry" />
        </mxCell>
        <mxCell id="c9i3LPFv9_K7PuiOlfbB-5" value="trace succeed ?" style="rhombus;whiteSpace=wrap;html=1;" vertex="1" parent="c9i3LPFv9_K7PuiOlfbB-205">
          <mxGeometry x="165" y="340" width="110" height="100" as="geometry" />
        </mxCell>
        <mxCell id="c9i3LPFv9_K7PuiOlfbB-6" style="edgeStyle=orthogonalEdgeStyle;rounded=0;orthogonalLoop=1;jettySize=auto;html=1;exitX=0.5;exitY=1;exitDx=0;exitDy=0;entryX=0.5;entryY=0;entryDx=0;entryDy=0;" edge="1" parent="c9i3LPFv9_K7PuiOlfbB-205" source="c9i3LPFv9_K7PuiOlfbB-3" target="c9i3LPFv9_K7PuiOlfbB-5">
          <mxGeometry relative="1" as="geometry" />
        </mxCell>
        <mxCell id="c9i3LPFv9_K7PuiOlfbB-9" value="Throw exception: The model given cannot be traced by torch.fx" style="rounded=0;whiteSpace=wrap;html=1;" vertex="1" parent="c9i3LPFv9_K7PuiOlfbB-205">
          <mxGeometry x="370" y="220" width="120" height="60" as="geometry" />
        </mxCell>
        <mxCell id="c9i3LPFv9_K7PuiOlfbB-7" style="edgeStyle=orthogonalEdgeStyle;rounded=0;orthogonalLoop=1;jettySize=auto;html=1;exitX=1;exitY=0.5;exitDx=0;exitDy=0;entryX=0.5;entryY=1;entryDx=0;entryDy=0;" edge="1" parent="c9i3LPFv9_K7PuiOlfbB-205" source="c9i3LPFv9_K7PuiOlfbB-5" target="c9i3LPFv9_K7PuiOlfbB-9">
          <mxGeometry relative="1" as="geometry">
            <mxPoint x="430" y="90" as="targetPoint" />
          </mxGeometry>
        </mxCell>
        <mxCell id="c9i3LPFv9_K7PuiOlfbB-8" value="No" style="edgeLabel;html=1;align=center;verticalAlign=middle;resizable=0;points=[];" vertex="1" connectable="0" parent="c9i3LPFv9_K7PuiOlfbB-7">
          <mxGeometry x="-0.9385" y="-1" relative="1" as="geometry">
            <mxPoint as="offset" />
          </mxGeometry>
        </mxCell>
        <mxCell id="c9i3LPFv9_K7PuiOlfbB-10" value="Filter trace" style="rounded=0;whiteSpace=wrap;html=1;" vertex="1" parent="c9i3LPFv9_K7PuiOlfbB-205">
          <mxGeometry x="160" y="510" width="120" height="60" as="geometry" />
        </mxCell>
        <mxCell id="c9i3LPFv9_K7PuiOlfbB-11" style="edgeStyle=orthogonalEdgeStyle;rounded=0;orthogonalLoop=1;jettySize=auto;html=1;exitX=0.5;exitY=1;exitDx=0;exitDy=0;" edge="1" parent="c9i3LPFv9_K7PuiOlfbB-205" source="c9i3LPFv9_K7PuiOlfbB-5" target="c9i3LPFv9_K7PuiOlfbB-10">
          <mxGeometry relative="1" as="geometry" />
        </mxCell>
        <mxCell id="c9i3LPFv9_K7PuiOlfbB-12" value="Yes" style="edgeLabel;html=1;align=center;verticalAlign=middle;resizable=0;points=[];" vertex="1" connectable="0" parent="c9i3LPFv9_K7PuiOlfbB-11">
          <mxGeometry x="-0.4857" y="2" relative="1" as="geometry">
            <mxPoint x="-2" as="offset" />
          </mxGeometry>
        </mxCell>
        <mxCell id="c9i3LPFv9_K7PuiOlfbB-13" value="Remove blacklisted nodes" style="rounded=0;whiteSpace=wrap;html=1;" vertex="1" parent="c9i3LPFv9_K7PuiOlfbB-205">
          <mxGeometry x="340" y="450" width="120" height="60" as="geometry" />
        </mxCell>
        <mxCell id="c9i3LPFv9_K7PuiOlfbB-14" style="edgeStyle=orthogonalEdgeStyle;rounded=0;orthogonalLoop=1;jettySize=auto;html=1;exitX=1;exitY=0.5;exitDx=0;exitDy=0;entryX=0;entryY=0.5;entryDx=0;entryDy=0;dashed=1;" edge="1" parent="c9i3LPFv9_K7PuiOlfbB-205" source="c9i3LPFv9_K7PuiOlfbB-10" target="c9i3LPFv9_K7PuiOlfbB-13">
          <mxGeometry relative="1" as="geometry" />
        </mxCell>
        <mxCell id="c9i3LPFv9_K7PuiOlfbB-17" style="edgeStyle=orthogonalEdgeStyle;rounded=0;orthogonalLoop=1;jettySize=auto;html=1;exitX=0;exitY=0.5;exitDx=0;exitDy=0;entryX=1;entryY=0.75;entryDx=0;entryDy=0;dashed=1;" edge="1" parent="c9i3LPFv9_K7PuiOlfbB-205" source="c9i3LPFv9_K7PuiOlfbB-15" target="c9i3LPFv9_K7PuiOlfbB-10">
          <mxGeometry relative="1" as="geometry" />
        </mxCell>
        <mxCell id="c9i3LPFv9_K7PuiOlfbB-15" value="Delete all unused node while at least one last" style="rounded=0;whiteSpace=wrap;html=1;" vertex="1" parent="c9i3LPFv9_K7PuiOlfbB-205">
          <mxGeometry x="340" y="550" width="120" height="60" as="geometry" />
        </mxCell>
        <mxCell id="c9i3LPFv9_K7PuiOlfbB-16" style="edgeStyle=orthogonalEdgeStyle;rounded=0;orthogonalLoop=1;jettySize=auto;html=1;exitX=0.5;exitY=1;exitDx=0;exitDy=0;entryX=0.5;entryY=0;entryDx=0;entryDy=0;" edge="1" parent="c9i3LPFv9_K7PuiOlfbB-205" source="c9i3LPFv9_K7PuiOlfbB-13" target="c9i3LPFv9_K7PuiOlfbB-15">
          <mxGeometry relative="1" as="geometry" />
        </mxCell>
        <mxCell id="c9i3LPFv9_K7PuiOlfbB-18" value="Prepare torch module description" style="rounded=0;whiteSpace=wrap;html=1;" vertex="1" parent="c9i3LPFv9_K7PuiOlfbB-205">
          <mxGeometry x="160" y="670" width="120" height="60" as="geometry" />
        </mxCell>
        <mxCell id="c9i3LPFv9_K7PuiOlfbB-19" style="edgeStyle=orthogonalEdgeStyle;rounded=0;orthogonalLoop=1;jettySize=auto;html=1;exitX=0.5;exitY=1;exitDx=0;exitDy=0;entryX=0.5;entryY=0;entryDx=0;entryDy=0;" edge="1" parent="c9i3LPFv9_K7PuiOlfbB-205" source="c9i3LPFv9_K7PuiOlfbB-10" target="c9i3LPFv9_K7PuiOlfbB-18">
          <mxGeometry relative="1" as="geometry" />
        </mxCell>
        <mxCell id="c9i3LPFv9_K7PuiOlfbB-22" style="edgeStyle=orthogonalEdgeStyle;rounded=0;orthogonalLoop=1;jettySize=auto;html=1;exitX=0;exitY=0.75;exitDx=0;exitDy=0;entryX=1;entryY=0.75;entryDx=0;entryDy=0;dashed=1;" edge="1" parent="c9i3LPFv9_K7PuiOlfbB-205" source="c9i3LPFv9_K7PuiOlfbB-20" target="c9i3LPFv9_K7PuiOlfbB-18">
          <mxGeometry relative="1" as="geometry" />
        </mxCell>
        <mxCell id="c9i3LPFv9_K7PuiOlfbB-20" value="Create look-up dictionnary to match target name with their declaration in the whitelist" style="rounded=0;whiteSpace=wrap;html=1;" vertex="1" parent="c9i3LPFv9_K7PuiOlfbB-205">
          <mxGeometry x="340" y="640" width="170" height="100" as="geometry" />
        </mxCell>
        <mxCell id="c9i3LPFv9_K7PuiOlfbB-21" style="edgeStyle=orthogonalEdgeStyle;rounded=0;orthogonalLoop=1;jettySize=auto;html=1;exitX=1;exitY=0.5;exitDx=0;exitDy=0;entryX=0;entryY=0.25;entryDx=0;entryDy=0;dashed=1;" edge="1" parent="c9i3LPFv9_K7PuiOlfbB-205" source="c9i3LPFv9_K7PuiOlfbB-18" target="c9i3LPFv9_K7PuiOlfbB-20">
          <mxGeometry relative="1" as="geometry" />
        </mxCell>
        <mxCell id="c9i3LPFv9_K7PuiOlfbB-23" value="Create all Layer Object for tracing" style="rounded=0;whiteSpace=wrap;html=1;" vertex="1" parent="c9i3LPFv9_K7PuiOlfbB-205">
          <mxGeometry x="160" y="850" width="120" height="60" as="geometry" />
        </mxCell>
        <mxCell id="c9i3LPFv9_K7PuiOlfbB-24" style="edgeStyle=orthogonalEdgeStyle;rounded=0;orthogonalLoop=1;jettySize=auto;html=1;exitX=0.5;exitY=1;exitDx=0;exitDy=0;entryX=0.5;entryY=0;entryDx=0;entryDy=0;" edge="1" parent="c9i3LPFv9_K7PuiOlfbB-205" source="c9i3LPFv9_K7PuiOlfbB-18" target="c9i3LPFv9_K7PuiOlfbB-23">
          <mxGeometry relative="1" as="geometry" />
        </mxCell>
        <mxCell id="c9i3LPFv9_K7PuiOlfbB-25" value="Foreach node in the trace" style="rounded=0;whiteSpace=wrap;html=1;" vertex="1" parent="c9i3LPFv9_K7PuiOlfbB-205">
          <mxGeometry x="734" y="220" width="120" height="60" as="geometry" />
        </mxCell>
        <mxCell id="c9i3LPFv9_K7PuiOlfbB-26" style="edgeStyle=orthogonalEdgeStyle;rounded=0;orthogonalLoop=1;jettySize=auto;html=1;exitX=1;exitY=0.5;exitDx=0;exitDy=0;entryX=0;entryY=0.25;entryDx=0;entryDy=0;dashed=1;" edge="1" parent="c9i3LPFv9_K7PuiOlfbB-205" source="c9i3LPFv9_K7PuiOlfbB-23" target="c9i3LPFv9_K7PuiOlfbB-25">
          <mxGeometry relative="1" as="geometry">
            <Array as="points">
              <mxPoint x="520" y="880" />
              <mxPoint x="520" y="235" />
            </Array>
          </mxGeometry>
        </mxCell>
        <mxCell id="c9i3LPFv9_K7PuiOlfbB-27" value="node is a getitem ?" style="rhombus;whiteSpace=wrap;html=1;" vertex="1" parent="c9i3LPFv9_K7PuiOlfbB-205">
          <mxGeometry x="728" y="320" width="133" height="120" as="geometry" />
        </mxCell>
        <mxCell id="c9i3LPFv9_K7PuiOlfbB-28" style="edgeStyle=orthogonalEdgeStyle;rounded=0;orthogonalLoop=1;jettySize=auto;html=1;exitX=0.5;exitY=1;exitDx=0;exitDy=0;entryX=0.5;entryY=0;entryDx=0;entryDy=0;" edge="1" parent="c9i3LPFv9_K7PuiOlfbB-205" source="c9i3LPFv9_K7PuiOlfbB-25" target="c9i3LPFv9_K7PuiOlfbB-27">
          <mxGeometry relative="1" as="geometry" />
        </mxCell>
        <mxCell id="c9i3LPFv9_K7PuiOlfbB-29" value="node is a getattr ?" style="rhombus;whiteSpace=wrap;html=1;" vertex="1" parent="c9i3LPFv9_K7PuiOlfbB-205">
          <mxGeometry x="728" y="480" width="133" height="120" as="geometry" />
        </mxCell>
        <mxCell id="c9i3LPFv9_K7PuiOlfbB-31" style="edgeStyle=orthogonalEdgeStyle;rounded=0;orthogonalLoop=1;jettySize=auto;html=1;exitX=0.5;exitY=1;exitDx=0;exitDy=0;entryX=0.5;entryY=0;entryDx=0;entryDy=0;" edge="1" parent="c9i3LPFv9_K7PuiOlfbB-205" source="c9i3LPFv9_K7PuiOlfbB-27" target="c9i3LPFv9_K7PuiOlfbB-29">
          <mxGeometry relative="1" as="geometry" />
        </mxCell>
        <mxCell id="c9i3LPFv9_K7PuiOlfbB-32" value="No" style="edgeLabel;html=1;align=center;verticalAlign=middle;resizable=0;points=[];" vertex="1" connectable="0" parent="c9i3LPFv9_K7PuiOlfbB-31">
          <mxGeometry x="-0.6" y="-2" relative="1" as="geometry">
            <mxPoint x="2" y="7" as="offset" />
          </mxGeometry>
        </mxCell>
        <mxCell id="c9i3LPFv9_K7PuiOlfbB-30" value="node is a call_module ?" style="rhombus;whiteSpace=wrap;html=1;" vertex="1" parent="c9i3LPFv9_K7PuiOlfbB-205">
          <mxGeometry x="728" y="640" width="133" height="120" as="geometry" />
        </mxCell>
        <mxCell id="c9i3LPFv9_K7PuiOlfbB-33" style="edgeStyle=orthogonalEdgeStyle;rounded=0;orthogonalLoop=1;jettySize=auto;html=1;exitX=0.5;exitY=1;exitDx=0;exitDy=0;" edge="1" parent="c9i3LPFv9_K7PuiOlfbB-205" source="c9i3LPFv9_K7PuiOlfbB-29" target="c9i3LPFv9_K7PuiOlfbB-30">
          <mxGeometry relative="1" as="geometry" />
        </mxCell>
        <mxCell id="c9i3LPFv9_K7PuiOlfbB-34" value="No" style="edgeLabel;html=1;align=center;verticalAlign=middle;resizable=0;points=[];" vertex="1" connectable="0" parent="c9i3LPFv9_K7PuiOlfbB-33">
          <mxGeometry x="0.36" y="-2" relative="1" as="geometry">
            <mxPoint x="2" y="-11" as="offset" />
          </mxGeometry>
        </mxCell>
        <mxCell id="c9i3LPFv9_K7PuiOlfbB-38" value="" style="edgeStyle=orthogonalEdgeStyle;rounded=0;orthogonalLoop=1;jettySize=auto;html=1;endArrow=none;endFill=0;" edge="1" parent="c9i3LPFv9_K7PuiOlfbB-205" source="c9i3LPFv9_K7PuiOlfbB-35" target="c9i3LPFv9_K7PuiOlfbB-30">
          <mxGeometry relative="1" as="geometry" />
        </mxCell>
        <mxCell id="c9i3LPFv9_K7PuiOlfbB-39" value="No" style="edgeLabel;html=1;align=center;verticalAlign=middle;resizable=0;points=[];" vertex="1" connectable="0" parent="c9i3LPFv9_K7PuiOlfbB-38">
          <mxGeometry x="0.2803" relative="1" as="geometry">
            <mxPoint as="offset" />
          </mxGeometry>
        </mxCell>
        <mxCell id="c9i3LPFv9_K7PuiOlfbB-35" value="node is a call_function ?" style="rhombus;whiteSpace=wrap;html=1;" vertex="1" parent="c9i3LPFv9_K7PuiOlfbB-205">
          <mxGeometry x="727.5" y="800" width="133" height="120" as="geometry" />
        </mxCell>
        <mxCell id="c9i3LPFv9_K7PuiOlfbB-36" style="edgeStyle=orthogonalEdgeStyle;rounded=0;orthogonalLoop=1;jettySize=auto;html=1;exitX=0.5;exitY=1;exitDx=0;exitDy=0;entryX=0.5;entryY=0;entryDx=0;entryDy=0;" edge="1" parent="c9i3LPFv9_K7PuiOlfbB-205" source="c9i3LPFv9_K7PuiOlfbB-30" target="c9i3LPFv9_K7PuiOlfbB-35">
          <mxGeometry relative="1" as="geometry" />
        </mxCell>
        <mxCell id="c9i3LPFv9_K7PuiOlfbB-87" style="edgeStyle=orthogonalEdgeStyle;rounded=0;orthogonalLoop=1;jettySize=auto;html=1;exitX=0.5;exitY=1;exitDx=0;exitDy=0;entryX=0.5;entryY=0;entryDx=0;entryDy=0;" edge="1" parent="c9i3LPFv9_K7PuiOlfbB-205" source="c9i3LPFv9_K7PuiOlfbB-40">
          <mxGeometry relative="1" as="geometry">
            <mxPoint x="794" y="1120" as="targetPoint" />
          </mxGeometry>
        </mxCell>
        <mxCell id="c9i3LPFv9_K7PuiOlfbB-88" value="No" style="edgeLabel;html=1;align=center;verticalAlign=middle;resizable=0;points=[];" vertex="1" connectable="0" parent="c9i3LPFv9_K7PuiOlfbB-87">
          <mxGeometry x="-0.3029" y="-1" relative="1" as="geometry">
            <mxPoint as="offset" />
          </mxGeometry>
        </mxCell>
        <mxCell id="c9i3LPFv9_K7PuiOlfbB-40" value="node is a get_attr ?" style="rhombus;whiteSpace=wrap;html=1;" vertex="1" parent="c9i3LPFv9_K7PuiOlfbB-205">
          <mxGeometry x="727.5" y="960" width="133" height="120" as="geometry" />
        </mxCell>
        <mxCell id="c9i3LPFv9_K7PuiOlfbB-41" style="edgeStyle=orthogonalEdgeStyle;rounded=0;orthogonalLoop=1;jettySize=auto;html=1;exitX=0.5;exitY=1;exitDx=0;exitDy=0;" edge="1" parent="c9i3LPFv9_K7PuiOlfbB-205" source="c9i3LPFv9_K7PuiOlfbB-35" target="c9i3LPFv9_K7PuiOlfbB-40">
          <mxGeometry relative="1" as="geometry" />
        </mxCell>
        <mxCell id="c9i3LPFv9_K7PuiOlfbB-42" value="No" style="edgeLabel;html=1;align=center;verticalAlign=middle;resizable=0;points=[];" vertex="1" connectable="0" parent="c9i3LPFv9_K7PuiOlfbB-41">
          <mxGeometry x="-0.2638" y="1" relative="1" as="geometry">
            <mxPoint as="offset" />
          </mxGeometry>
        </mxCell>
        <mxCell id="c9i3LPFv9_K7PuiOlfbB-43" value="Foreach node in the trace" style="rounded=0;whiteSpace=wrap;html=1;" vertex="1" parent="c9i3LPFv9_K7PuiOlfbB-205">
          <mxGeometry x="1050" y="220" width="120" height="60" as="geometry" />
        </mxCell>
        <mxCell id="c9i3LPFv9_K7PuiOlfbB-44" style="edgeStyle=orthogonalEdgeStyle;rounded=0;orthogonalLoop=1;jettySize=auto;html=1;exitX=1;exitY=0.5;exitDx=0;exitDy=0;entryX=0;entryY=0.5;entryDx=0;entryDy=0;" edge="1" parent="c9i3LPFv9_K7PuiOlfbB-205" source="c9i3LPFv9_K7PuiOlfbB-27" target="c9i3LPFv9_K7PuiOlfbB-43">
          <mxGeometry relative="1" as="geometry" />
        </mxCell>
        <mxCell id="c9i3LPFv9_K7PuiOlfbB-45" value="Yes" style="edgeLabel;html=1;align=center;verticalAlign=middle;resizable=0;points=[];" vertex="1" connectable="0" parent="c9i3LPFv9_K7PuiOlfbB-44">
          <mxGeometry x="-0.5674" y="-2" relative="1" as="geometry">
            <mxPoint x="-10" y="-2" as="offset" />
          </mxGeometry>
        </mxCell>
        <mxCell id="c9i3LPFv9_K7PuiOlfbB-46" value="&lt;div&gt;getitem find&amp;nbsp;&lt;/div&gt;&lt;div&gt;in arguments&amp;nbsp;&lt;/div&gt;&lt;div&gt;of the node ?&lt;/div&gt;" style="rhombus;whiteSpace=wrap;html=1;" vertex="1" parent="c9i3LPFv9_K7PuiOlfbB-205">
          <mxGeometry x="1043.5" y="330" width="133" height="120" as="geometry" />
        </mxCell>
        <mxCell id="c9i3LPFv9_K7PuiOlfbB-50" style="edgeStyle=orthogonalEdgeStyle;rounded=0;orthogonalLoop=1;jettySize=auto;html=1;exitX=0.5;exitY=1;exitDx=0;exitDy=0;entryX=0.5;entryY=0;entryDx=0;entryDy=0;" edge="1" parent="c9i3LPFv9_K7PuiOlfbB-205" source="c9i3LPFv9_K7PuiOlfbB-43" target="c9i3LPFv9_K7PuiOlfbB-46">
          <mxGeometry relative="1" as="geometry" />
        </mxCell>
        <mxCell id="c9i3LPFv9_K7PuiOlfbB-52" value="First argument is a getattr ?" style="rhombus;whiteSpace=wrap;html=1;" vertex="1" parent="c9i3LPFv9_K7PuiOlfbB-205">
          <mxGeometry x="1230" y="330" width="133" height="120" as="geometry" />
        </mxCell>
        <mxCell id="c9i3LPFv9_K7PuiOlfbB-53" style="edgeStyle=orthogonalEdgeStyle;rounded=0;orthogonalLoop=1;jettySize=auto;html=1;exitX=1;exitY=0.5;exitDx=0;exitDy=0;entryX=0;entryY=0.5;entryDx=0;entryDy=0;" edge="1" parent="c9i3LPFv9_K7PuiOlfbB-205" source="c9i3LPFv9_K7PuiOlfbB-46" target="c9i3LPFv9_K7PuiOlfbB-52">
          <mxGeometry relative="1" as="geometry" />
        </mxCell>
        <mxCell id="c9i3LPFv9_K7PuiOlfbB-54" value="Yes" style="edgeLabel;html=1;align=center;verticalAlign=middle;resizable=0;points=[];" vertex="1" connectable="0" parent="c9i3LPFv9_K7PuiOlfbB-53">
          <mxGeometry x="-0.2842" y="-4" relative="1" as="geometry">
            <mxPoint x="3" y="-4" as="offset" />
          </mxGeometry>
        </mxCell>
        <mxCell id="c9i3LPFv9_K7PuiOlfbB-56" value="Select Layer to modify, correspond to first argument of the getitem" style="rounded=0;whiteSpace=wrap;html=1;" vertex="1" parent="c9i3LPFv9_K7PuiOlfbB-205">
          <mxGeometry x="1236.5" y="490" width="120" height="60" as="geometry" />
        </mxCell>
        <mxCell id="c9i3LPFv9_K7PuiOlfbB-57" style="edgeStyle=orthogonalEdgeStyle;rounded=0;orthogonalLoop=1;jettySize=auto;html=1;entryX=0.5;entryY=0;entryDx=0;entryDy=0;" edge="1" parent="c9i3LPFv9_K7PuiOlfbB-205" source="c9i3LPFv9_K7PuiOlfbB-52" target="c9i3LPFv9_K7PuiOlfbB-56">
          <mxGeometry relative="1" as="geometry" />
        </mxCell>
        <mxCell id="c9i3LPFv9_K7PuiOlfbB-58" value="No" style="edgeLabel;html=1;align=center;verticalAlign=middle;resizable=0;points=[];" vertex="1" connectable="0" parent="c9i3LPFv9_K7PuiOlfbB-57">
          <mxGeometry x="-0.3324" y="-1" relative="1" as="geometry">
            <mxPoint x="1" as="offset" />
          </mxGeometry>
        </mxCell>
        <mxCell id="c9i3LPFv9_K7PuiOlfbB-59" value="&lt;div&gt;getitem already assign&amp;nbsp;&lt;/div&gt;&lt;div&gt;to the Getattr object ?&lt;/div&gt;" style="rhombus;whiteSpace=wrap;html=1;" vertex="1" parent="c9i3LPFv9_K7PuiOlfbB-205">
          <mxGeometry x="1420" y="320" width="150" height="140" as="geometry" />
        </mxCell>
        <mxCell id="c9i3LPFv9_K7PuiOlfbB-60" style="edgeStyle=orthogonalEdgeStyle;rounded=0;orthogonalLoop=1;jettySize=auto;html=1;entryX=0;entryY=0.5;entryDx=0;entryDy=0;" edge="1" parent="c9i3LPFv9_K7PuiOlfbB-205" source="c9i3LPFv9_K7PuiOlfbB-52" target="c9i3LPFv9_K7PuiOlfbB-59">
          <mxGeometry relative="1" as="geometry" />
        </mxCell>
        <mxCell id="c9i3LPFv9_K7PuiOlfbB-61" value="Yes" style="edgeLabel;html=1;align=center;verticalAlign=middle;resizable=0;points=[];" vertex="1" connectable="0" parent="c9i3LPFv9_K7PuiOlfbB-60">
          <mxGeometry x="-0.0609" y="-2" relative="1" as="geometry">
            <mxPoint y="-2" as="offset" />
          </mxGeometry>
        </mxCell>
        <mxCell id="c9i3LPFv9_K7PuiOlfbB-62" value="Add the getitem to the selected layer that correspond to the second argument of the getitem" style="rounded=0;whiteSpace=wrap;html=1;" vertex="1" parent="c9i3LPFv9_K7PuiOlfbB-205">
          <mxGeometry x="1236.5" y="590" width="120" height="90" as="geometry" />
        </mxCell>
        <mxCell id="c9i3LPFv9_K7PuiOlfbB-63" style="edgeStyle=orthogonalEdgeStyle;rounded=0;orthogonalLoop=1;jettySize=auto;html=1;entryX=0.5;entryY=0;entryDx=0;entryDy=0;" edge="1" parent="c9i3LPFv9_K7PuiOlfbB-205" source="c9i3LPFv9_K7PuiOlfbB-56" target="c9i3LPFv9_K7PuiOlfbB-62">
          <mxGeometry relative="1" as="geometry" />
        </mxCell>
        <mxCell id="c9i3LPFv9_K7PuiOlfbB-105" style="edgeStyle=orthogonalEdgeStyle;rounded=0;orthogonalLoop=1;jettySize=auto;html=1;exitX=1;exitY=0.5;exitDx=0;exitDy=0;" edge="1" parent="c9i3LPFv9_K7PuiOlfbB-205" source="c9i3LPFv9_K7PuiOlfbB-64">
          <mxGeometry relative="1" as="geometry">
            <mxPoint x="1820" y="390.41176470588243" as="targetPoint" />
          </mxGeometry>
        </mxCell>
        <mxCell id="c9i3LPFv9_K7PuiOlfbB-64" value="Add the getiitem to the Getattr object slected by his name in the GetAttr dict." style="whiteSpace=wrap;html=1;" vertex="1" parent="c9i3LPFv9_K7PuiOlfbB-205">
          <mxGeometry x="1630" y="360" width="120" height="60" as="geometry" />
        </mxCell>
        <mxCell id="c9i3LPFv9_K7PuiOlfbB-65" value="" style="edgeStyle=orthogonalEdgeStyle;rounded=0;orthogonalLoop=1;jettySize=auto;html=1;" edge="1" parent="c9i3LPFv9_K7PuiOlfbB-205" source="c9i3LPFv9_K7PuiOlfbB-59" target="c9i3LPFv9_K7PuiOlfbB-64">
          <mxGeometry relative="1" as="geometry" />
        </mxCell>
        <mxCell id="c9i3LPFv9_K7PuiOlfbB-66" value="No" style="edgeLabel;html=1;align=center;verticalAlign=middle;resizable=0;points=[];" vertex="1" connectable="0" parent="c9i3LPFv9_K7PuiOlfbB-65">
          <mxGeometry x="-0.2235" y="1" relative="1" as="geometry">
            <mxPoint as="offset" />
          </mxGeometry>
        </mxCell>
        <mxCell id="c9i3LPFv9_K7PuiOlfbB-67" value="Create a new GetAttr in the GetAttr dict " style="whiteSpace=wrap;html=1;" vertex="1" parent="c9i3LPFv9_K7PuiOlfbB-205">
          <mxGeometry x="1435" y="510" width="120" height="60" as="geometry" />
        </mxCell>
        <mxCell id="c9i3LPFv9_K7PuiOlfbB-68" value="" style="edgeStyle=orthogonalEdgeStyle;rounded=0;orthogonalLoop=1;jettySize=auto;html=1;" edge="1" parent="c9i3LPFv9_K7PuiOlfbB-205" source="c9i3LPFv9_K7PuiOlfbB-59" target="c9i3LPFv9_K7PuiOlfbB-67">
          <mxGeometry relative="1" as="geometry" />
        </mxCell>
        <mxCell id="c9i3LPFv9_K7PuiOlfbB-69" value="Yes" style="edgeLabel;html=1;align=center;verticalAlign=middle;resizable=0;points=[];" vertex="1" connectable="0" parent="c9i3LPFv9_K7PuiOlfbB-68">
          <mxGeometry x="-0.3012" y="-1" relative="1" as="geometry">
            <mxPoint as="offset" />
          </mxGeometry>
        </mxCell>
        <mxCell id="c9i3LPFv9_K7PuiOlfbB-104" style="edgeStyle=orthogonalEdgeStyle;rounded=0;orthogonalLoop=1;jettySize=auto;html=1;exitX=0.5;exitY=1;exitDx=0;exitDy=0;" edge="1" parent="c9i3LPFv9_K7PuiOlfbB-205" source="c9i3LPFv9_K7PuiOlfbB-75">
          <mxGeometry relative="1" as="geometry">
            <mxPoint x="1494.4705882352946" y="700" as="targetPoint" />
          </mxGeometry>
        </mxCell>
        <mxCell id="c9i3LPFv9_K7PuiOlfbB-75" value="Add the getiitem to the Getattr object slected by his name in the GetAttr dict." style="whiteSpace=wrap;html=1;" vertex="1" parent="c9i3LPFv9_K7PuiOlfbB-205">
          <mxGeometry x="1435" y="620" width="120" height="60" as="geometry" />
        </mxCell>
        <mxCell id="c9i3LPFv9_K7PuiOlfbB-76" style="edgeStyle=orthogonalEdgeStyle;rounded=0;orthogonalLoop=1;jettySize=auto;html=1;exitX=0.5;exitY=1;exitDx=0;exitDy=0;entryX=0.5;entryY=0;entryDx=0;entryDy=0;" edge="1" parent="c9i3LPFv9_K7PuiOlfbB-205" source="c9i3LPFv9_K7PuiOlfbB-67" target="c9i3LPFv9_K7PuiOlfbB-75">
          <mxGeometry relative="1" as="geometry" />
        </mxCell>
        <mxCell id="c9i3LPFv9_K7PuiOlfbB-78" value="Add new GetAttr object to GetAttr dict" style="whiteSpace=wrap;html=1;" vertex="1" parent="c9i3LPFv9_K7PuiOlfbB-205">
          <mxGeometry x="930" y="510" width="120" height="60" as="geometry" />
        </mxCell>
        <mxCell id="c9i3LPFv9_K7PuiOlfbB-79" value="" style="edgeStyle=orthogonalEdgeStyle;rounded=0;orthogonalLoop=1;jettySize=auto;html=1;" edge="1" parent="c9i3LPFv9_K7PuiOlfbB-205" source="c9i3LPFv9_K7PuiOlfbB-29" target="c9i3LPFv9_K7PuiOlfbB-78">
          <mxGeometry relative="1" as="geometry" />
        </mxCell>
        <mxCell id="c9i3LPFv9_K7PuiOlfbB-92" value="Yes" style="edgeLabel;html=1;align=center;verticalAlign=middle;resizable=0;points=[];" vertex="1" connectable="0" parent="c9i3LPFv9_K7PuiOlfbB-79">
          <mxGeometry x="-0.2003" y="-1" relative="1" as="geometry">
            <mxPoint x="1" as="offset" />
          </mxGeometry>
        </mxCell>
        <mxCell id="c9i3LPFv9_K7PuiOlfbB-80" value="Add new CallModule object to Layer dict" style="whiteSpace=wrap;html=1;" vertex="1" parent="c9i3LPFv9_K7PuiOlfbB-205">
          <mxGeometry x="930" y="670" width="120" height="60" as="geometry" />
        </mxCell>
        <mxCell id="c9i3LPFv9_K7PuiOlfbB-81" style="edgeStyle=orthogonalEdgeStyle;rounded=0;orthogonalLoop=1;jettySize=auto;html=1;exitX=1;exitY=0.5;exitDx=0;exitDy=0;" edge="1" parent="c9i3LPFv9_K7PuiOlfbB-205" source="c9i3LPFv9_K7PuiOlfbB-30" target="c9i3LPFv9_K7PuiOlfbB-80">
          <mxGeometry relative="1" as="geometry" />
        </mxCell>
        <mxCell id="c9i3LPFv9_K7PuiOlfbB-91" value="Yes" style="edgeLabel;html=1;align=center;verticalAlign=middle;resizable=0;points=[];" vertex="1" connectable="0" parent="c9i3LPFv9_K7PuiOlfbB-81">
          <mxGeometry x="-0.2003" relative="1" as="geometry">
            <mxPoint x="1" as="offset" />
          </mxGeometry>
        </mxCell>
        <mxCell id="c9i3LPFv9_K7PuiOlfbB-82" value="Add new CallFunction object to Layer dict" style="whiteSpace=wrap;html=1;" vertex="1" parent="c9i3LPFv9_K7PuiOlfbB-205">
          <mxGeometry x="930" y="830" width="120" height="60" as="geometry" />
        </mxCell>
        <mxCell id="c9i3LPFv9_K7PuiOlfbB-83" style="edgeStyle=orthogonalEdgeStyle;rounded=0;orthogonalLoop=1;jettySize=auto;html=1;exitX=1;exitY=0.5;exitDx=0;exitDy=0;entryX=0;entryY=0.5;entryDx=0;entryDy=0;" edge="1" parent="c9i3LPFv9_K7PuiOlfbB-205" source="c9i3LPFv9_K7PuiOlfbB-35" target="c9i3LPFv9_K7PuiOlfbB-82">
          <mxGeometry relative="1" as="geometry" />
        </mxCell>
        <mxCell id="c9i3LPFv9_K7PuiOlfbB-90" value="Yes" style="edgeLabel;html=1;align=center;verticalAlign=middle;resizable=0;points=[];" vertex="1" connectable="0" parent="c9i3LPFv9_K7PuiOlfbB-83">
          <mxGeometry x="0.0453" y="-1" relative="1" as="geometry">
            <mxPoint as="offset" />
          </mxGeometry>
        </mxCell>
        <mxCell id="c9i3LPFv9_K7PuiOlfbB-84" value="Add new GetAttrModule object to Layer dict" style="whiteSpace=wrap;html=1;" vertex="1" parent="c9i3LPFv9_K7PuiOlfbB-205">
          <mxGeometry x="930" y="990" width="120" height="60" as="geometry" />
        </mxCell>
        <mxCell id="c9i3LPFv9_K7PuiOlfbB-85" style="edgeStyle=orthogonalEdgeStyle;rounded=0;orthogonalLoop=1;jettySize=auto;html=1;exitX=1;exitY=0.5;exitDx=0;exitDy=0;entryX=0;entryY=0.5;entryDx=0;entryDy=0;" edge="1" parent="c9i3LPFv9_K7PuiOlfbB-205" source="c9i3LPFv9_K7PuiOlfbB-40" target="c9i3LPFv9_K7PuiOlfbB-84">
          <mxGeometry relative="1" as="geometry" />
        </mxCell>
        <mxCell id="c9i3LPFv9_K7PuiOlfbB-89" value="Yes" style="edgeLabel;html=1;align=center;verticalAlign=middle;resizable=0;points=[];" vertex="1" connectable="0" parent="c9i3LPFv9_K7PuiOlfbB-85">
          <mxGeometry x="-0.2256" relative="1" as="geometry">
            <mxPoint as="offset" />
          </mxGeometry>
        </mxCell>
        <mxCell id="c9i3LPFv9_K7PuiOlfbB-95" value="Add new PropagationLayer object to Layer dict" style="whiteSpace=wrap;html=1;" vertex="1" parent="c9i3LPFv9_K7PuiOlfbB-205">
          <mxGeometry x="740.5" y="1120" width="120" height="60" as="geometry" />
        </mxCell>
        <mxCell id="c9i3LPFv9_K7PuiOlfbB-97" style="edgeStyle=orthogonalEdgeStyle;rounded=0;orthogonalLoop=1;jettySize=auto;html=1;exitX=0;exitY=0.5;exitDx=0;exitDy=0;entryX=1;entryY=0.5;entryDx=0;entryDy=0;" edge="1" parent="c9i3LPFv9_K7PuiOlfbB-205" source="c9i3LPFv9_K7PuiOlfbB-96" target="c9i3LPFv9_K7PuiOlfbB-43">
          <mxGeometry relative="1" as="geometry" />
        </mxCell>
        <mxCell id="c9i3LPFv9_K7PuiOlfbB-98" value="No" style="edgeLabel;html=1;align=center;verticalAlign=middle;resizable=0;points=[];" vertex="1" connectable="0" parent="c9i3LPFv9_K7PuiOlfbB-97">
          <mxGeometry x="-0.2587" y="4" relative="1" as="geometry">
            <mxPoint as="offset" />
          </mxGeometry>
        </mxCell>
        <mxCell id="c9i3LPFv9_K7PuiOlfbB-99" style="edgeStyle=orthogonalEdgeStyle;rounded=0;orthogonalLoop=1;jettySize=auto;html=1;exitX=0.5;exitY=0;exitDx=0;exitDy=0;entryX=0.5;entryY=0;entryDx=0;entryDy=0;" edge="1" parent="c9i3LPFv9_K7PuiOlfbB-205" source="c9i3LPFv9_K7PuiOlfbB-96" target="c9i3LPFv9_K7PuiOlfbB-25">
          <mxGeometry relative="1" as="geometry" />
        </mxCell>
        <mxCell id="c9i3LPFv9_K7PuiOlfbB-96" value="End of trace ? " style="rhombus;whiteSpace=wrap;html=1;" vertex="1" parent="c9i3LPFv9_K7PuiOlfbB-205">
          <mxGeometry x="1230" y="189" width="133" height="120" as="geometry" />
        </mxCell>
        <mxCell id="c9i3LPFv9_K7PuiOlfbB-101" style="edgeStyle=orthogonalEdgeStyle;rounded=0;orthogonalLoop=1;jettySize=auto;html=1;exitX=1;exitY=0;exitDx=0;exitDy=0;entryX=0;entryY=1;entryDx=0;entryDy=0;" edge="1" parent="c9i3LPFv9_K7PuiOlfbB-205" source="c9i3LPFv9_K7PuiOlfbB-46" target="c9i3LPFv9_K7PuiOlfbB-96">
          <mxGeometry relative="1" as="geometry">
            <Array as="points">
              <mxPoint x="1210" y="360" />
              <mxPoint x="1210" y="279" />
            </Array>
          </mxGeometry>
        </mxCell>
        <mxCell id="c9i3LPFv9_K7PuiOlfbB-102" value="No" style="edgeLabel;html=1;align=center;verticalAlign=middle;resizable=0;points=[];" vertex="1" connectable="0" parent="c9i3LPFv9_K7PuiOlfbB-101">
          <mxGeometry x="-0.4785" relative="1" as="geometry">
            <mxPoint x="-1" as="offset" />
          </mxGeometry>
        </mxCell>
        <mxCell id="c9i3LPFv9_K7PuiOlfbB-103" style="edgeStyle=orthogonalEdgeStyle;rounded=0;orthogonalLoop=1;jettySize=auto;html=1;exitX=0.5;exitY=1;exitDx=0;exitDy=0;entryX=1;entryY=0.5;entryDx=0;entryDy=0;" edge="1" parent="c9i3LPFv9_K7PuiOlfbB-205" source="c9i3LPFv9_K7PuiOlfbB-62" target="c9i3LPFv9_K7PuiOlfbB-96">
          <mxGeometry relative="1" as="geometry">
            <Array as="points">
              <mxPoint x="1296" y="700" />
              <mxPoint x="1820" y="700" />
              <mxPoint x="1820" y="249" />
            </Array>
          </mxGeometry>
        </mxCell>
        <mxCell id="c9i3LPFv9_K7PuiOlfbB-107" style="edgeStyle=orthogonalEdgeStyle;rounded=0;orthogonalLoop=1;jettySize=auto;html=1;exitX=1;exitY=0.5;exitDx=0;exitDy=0;entryX=0.5;entryY=0;entryDx=0;entryDy=0;" edge="1" parent="c9i3LPFv9_K7PuiOlfbB-205" source="c9i3LPFv9_K7PuiOlfbB-106" target="c9i3LPFv9_K7PuiOlfbB-25">
          <mxGeometry relative="1" as="geometry">
            <mxPoint x="1296" y="169.29411764705858" as="targetPoint" />
            <mxPoint x="1438.9999999999998" y="1149" as="sourcePoint" />
            <Array as="points">
              <mxPoint x="1856" y="1150" />
              <mxPoint x="1856" y="169" />
              <mxPoint x="794" y="169" />
            </Array>
          </mxGeometry>
        </mxCell>
        <mxCell id="c9i3LPFv9_K7PuiOlfbB-108" value="No" style="edgeLabel;html=1;align=center;verticalAlign=middle;resizable=0;points=[];" vertex="1" connectable="0" parent="c9i3LPFv9_K7PuiOlfbB-107">
          <mxGeometry x="-0.9666" y="3" relative="1" as="geometry">
            <mxPoint y="2" as="offset" />
          </mxGeometry>
        </mxCell>
        <mxCell id="c9i3LPFv9_K7PuiOlfbB-118" value="Yes" style="edgeLabel;html=1;align=center;verticalAlign=middle;resizable=0;points=[];" vertex="1" connectable="0" parent="c9i3LPFv9_K7PuiOlfbB-107">
          <mxGeometry x="0.5876" y="1" relative="1" as="geometry">
            <mxPoint x="33" y="-2" as="offset" />
          </mxGeometry>
        </mxCell>
        <mxCell id="c9i3LPFv9_K7PuiOlfbB-109" style="edgeStyle=orthogonalEdgeStyle;rounded=0;orthogonalLoop=1;jettySize=auto;html=1;exitX=0.5;exitY=1;exitDx=0;exitDy=0;entryX=1;entryY=0.75;entryDx=0;entryDy=0;dashed=1;" edge="1" parent="c9i3LPFv9_K7PuiOlfbB-205" source="c9i3LPFv9_K7PuiOlfbB-106" target="c9i3LPFv9_K7PuiOlfbB-23">
          <mxGeometry relative="1" as="geometry">
            <Array as="points">
              <mxPoint x="1386" y="1220" />
              <mxPoint x="520" y="1220" />
              <mxPoint x="520" y="895" />
            </Array>
          </mxGeometry>
        </mxCell>
        <mxCell id="c9i3LPFv9_K7PuiOlfbB-110" value="Yes" style="edgeLabel;html=1;align=center;verticalAlign=middle;resizable=0;points=[];" vertex="1" connectable="0" parent="c9i3LPFv9_K7PuiOlfbB-109">
          <mxGeometry x="-0.938" y="1" relative="1" as="geometry">
            <mxPoint as="offset" />
          </mxGeometry>
        </mxCell>
        <mxCell id="c9i3LPFv9_K7PuiOlfbB-106" value="&lt;div&gt;End of trace ? &lt;br&gt;&lt;/div&gt;" style="rhombus;whiteSpace=wrap;html=1;" vertex="1" parent="c9i3LPFv9_K7PuiOlfbB-205">
          <mxGeometry x="1330" y="1095" width="113" height="110" as="geometry" />
        </mxCell>
        <mxCell id="c9i3LPFv9_K7PuiOlfbB-117" style="edgeStyle=orthogonalEdgeStyle;rounded=0;orthogonalLoop=1;jettySize=auto;html=1;exitX=1;exitY=0.5;exitDx=0;exitDy=0;entryX=0.5;entryY=0;entryDx=0;entryDy=0;" edge="1" parent="c9i3LPFv9_K7PuiOlfbB-205" source="c9i3LPFv9_K7PuiOlfbB-78" target="c9i3LPFv9_K7PuiOlfbB-106">
          <mxGeometry relative="1" as="geometry">
            <mxPoint x="1390" y="1020" as="targetPoint" />
            <Array as="points">
              <mxPoint x="1170" y="540" />
              <mxPoint x="1170" y="720" />
              <mxPoint x="1387" y="720" />
            </Array>
          </mxGeometry>
        </mxCell>
        <mxCell id="c9i3LPFv9_K7PuiOlfbB-116" style="edgeStyle=orthogonalEdgeStyle;rounded=0;orthogonalLoop=1;jettySize=auto;html=1;exitX=1;exitY=0.5;exitDx=0;exitDy=0;entryX=0.5;entryY=0;entryDx=0;entryDy=0;" edge="1" parent="c9i3LPFv9_K7PuiOlfbB-205" source="c9i3LPFv9_K7PuiOlfbB-84" target="c9i3LPFv9_K7PuiOlfbB-106">
          <mxGeometry relative="1" as="geometry" />
        </mxCell>
        <mxCell id="c9i3LPFv9_K7PuiOlfbB-115" style="edgeStyle=orthogonalEdgeStyle;rounded=0;orthogonalLoop=1;jettySize=auto;html=1;exitX=1;exitY=0.5;exitDx=0;exitDy=0;entryX=0;entryY=0.5;entryDx=0;entryDy=0;" edge="1" parent="c9i3LPFv9_K7PuiOlfbB-205" source="c9i3LPFv9_K7PuiOlfbB-111" target="c9i3LPFv9_K7PuiOlfbB-106">
          <mxGeometry relative="1" as="geometry" />
        </mxCell>
        <mxCell id="c9i3LPFv9_K7PuiOlfbB-111" value="Save actual node as previous node for parent child layer relation" style="rounded=0;whiteSpace=wrap;html=1;" vertex="1" parent="c9i3LPFv9_K7PuiOlfbB-205">
          <mxGeometry x="1080" y="1120" width="120" height="60" as="geometry" />
        </mxCell>
        <mxCell id="c9i3LPFv9_K7PuiOlfbB-112" style="edgeStyle=orthogonalEdgeStyle;rounded=0;orthogonalLoop=1;jettySize=auto;html=1;exitX=1;exitY=0.5;exitDx=0;exitDy=0;entryX=0.5;entryY=0;entryDx=0;entryDy=0;" edge="1" parent="c9i3LPFv9_K7PuiOlfbB-205" source="c9i3LPFv9_K7PuiOlfbB-80" target="c9i3LPFv9_K7PuiOlfbB-111">
          <mxGeometry relative="1" as="geometry" />
        </mxCell>
        <mxCell id="c9i3LPFv9_K7PuiOlfbB-113" style="edgeStyle=orthogonalEdgeStyle;rounded=0;orthogonalLoop=1;jettySize=auto;html=1;exitX=1;exitY=0.5;exitDx=0;exitDy=0;entryX=0.25;entryY=0;entryDx=0;entryDy=0;" edge="1" parent="c9i3LPFv9_K7PuiOlfbB-205" source="c9i3LPFv9_K7PuiOlfbB-82" target="c9i3LPFv9_K7PuiOlfbB-111">
          <mxGeometry relative="1" as="geometry" />
        </mxCell>
        <mxCell id="c9i3LPFv9_K7PuiOlfbB-114" style="edgeStyle=orthogonalEdgeStyle;rounded=0;orthogonalLoop=1;jettySize=auto;html=1;exitX=1;exitY=0.5;exitDx=0;exitDy=0;entryX=0;entryY=0.5;entryDx=0;entryDy=0;" edge="1" parent="c9i3LPFv9_K7PuiOlfbB-205" source="c9i3LPFv9_K7PuiOlfbB-95" target="c9i3LPFv9_K7PuiOlfbB-111">
          <mxGeometry relative="1" as="geometry" />
        </mxCell>
        <mxCell id="c9i3LPFv9_K7PuiOlfbB-119" value="For each GetAttr object in the Getattr dictionnary" style="rounded=0;whiteSpace=wrap;html=1;" vertex="1" parent="c9i3LPFv9_K7PuiOlfbB-205">
          <mxGeometry x="160" y="1320" width="120" height="60" as="geometry" />
        </mxCell>
        <mxCell id="c9i3LPFv9_K7PuiOlfbB-120" style="edgeStyle=orthogonalEdgeStyle;rounded=0;orthogonalLoop=1;jettySize=auto;html=1;exitX=0.5;exitY=1;exitDx=0;exitDy=0;entryX=0.5;entryY=0;entryDx=0;entryDy=0;" edge="1" parent="c9i3LPFv9_K7PuiOlfbB-205" source="c9i3LPFv9_K7PuiOlfbB-23" target="c9i3LPFv9_K7PuiOlfbB-119">
          <mxGeometry relative="1" as="geometry" />
        </mxCell>
        <mxCell id="c9i3LPFv9_K7PuiOlfbB-121" value="Is a stash needed ? " style="rhombus;whiteSpace=wrap;html=1;" vertex="1" parent="c9i3LPFv9_K7PuiOlfbB-205">
          <mxGeometry x="420" y="1295" width="120" height="110" as="geometry" />
        </mxCell>
        <mxCell id="c9i3LPFv9_K7PuiOlfbB-123" style="edgeStyle=orthogonalEdgeStyle;rounded=0;orthogonalLoop=1;jettySize=auto;html=1;exitX=1;exitY=0.5;exitDx=0;exitDy=0;entryX=0;entryY=0.5;entryDx=0;entryDy=0;" edge="1" parent="c9i3LPFv9_K7PuiOlfbB-205" source="c9i3LPFv9_K7PuiOlfbB-119" target="c9i3LPFv9_K7PuiOlfbB-121">
          <mxGeometry relative="1" as="geometry" />
        </mxCell>
        <mxCell id="c9i3LPFv9_K7PuiOlfbB-122" value="&lt;h1&gt;Stash&lt;/h1&gt;&lt;p&gt;A stash means that the result of the layer need to be spread further than the direct connected layer&lt;br&gt;&lt;/p&gt;" style="text;html=1;strokeColor=none;fillColor=none;spacing=5;spacingTop=-20;whiteSpace=wrap;overflow=hidden;rounded=0;" vertex="1" parent="c9i3LPFv9_K7PuiOlfbB-205">
          <mxGeometry x="325" y="1350" width="150" height="110" as="geometry" />
        </mxCell>
        <mxCell id="c9i3LPFv9_K7PuiOlfbB-124" value="Update argument of the Layer child of Getattr by the specific get attribute." style="rounded=0;whiteSpace=wrap;html=1;" vertex="1" parent="c9i3LPFv9_K7PuiOlfbB-205">
          <mxGeometry x="660" y="1320" width="120" height="60" as="geometry" />
        </mxCell>
        <mxCell id="c9i3LPFv9_K7PuiOlfbB-126" style="edgeStyle=orthogonalEdgeStyle;rounded=0;orthogonalLoop=1;jettySize=auto;html=1;exitX=1;exitY=0.5;exitDx=0;exitDy=0;entryX=0;entryY=0.5;entryDx=0;entryDy=0;" edge="1" parent="c9i3LPFv9_K7PuiOlfbB-205" source="c9i3LPFv9_K7PuiOlfbB-121" target="c9i3LPFv9_K7PuiOlfbB-124">
          <mxGeometry relative="1" as="geometry" />
        </mxCell>
        <mxCell id="c9i3LPFv9_K7PuiOlfbB-127" value="No" style="edgeLabel;html=1;align=center;verticalAlign=middle;resizable=0;points=[];" vertex="1" connectable="0" parent="c9i3LPFv9_K7PuiOlfbB-126">
          <mxGeometry x="-0.125" y="-1" relative="1" as="geometry">
            <mxPoint as="offset" />
          </mxGeometry>
        </mxCell>
        <mxCell id="c9i3LPFv9_K7PuiOlfbB-132" style="edgeStyle=orthogonalEdgeStyle;rounded=0;orthogonalLoop=1;jettySize=auto;html=1;exitX=0.5;exitY=0;exitDx=0;exitDy=0;entryX=0.75;entryY=0;entryDx=0;entryDy=0;" edge="1" parent="c9i3LPFv9_K7PuiOlfbB-205" source="c9i3LPFv9_K7PuiOlfbB-125" target="c9i3LPFv9_K7PuiOlfbB-119">
          <mxGeometry relative="1" as="geometry" />
        </mxCell>
        <mxCell id="c9i3LPFv9_K7PuiOlfbB-133" value="No" style="edgeLabel;html=1;align=center;verticalAlign=middle;resizable=0;points=[];" vertex="1" connectable="0" parent="c9i3LPFv9_K7PuiOlfbB-132">
          <mxGeometry x="-0.9269" y="2" relative="1" as="geometry">
            <mxPoint x="8" y="13" as="offset" />
          </mxGeometry>
        </mxCell>
        <mxCell id="c9i3LPFv9_K7PuiOlfbB-125" value="End of Getattr dictionnary ?" style="rhombus;whiteSpace=wrap;html=1;" vertex="1" parent="c9i3LPFv9_K7PuiOlfbB-205">
          <mxGeometry x="900" y="1295" width="120" height="110" as="geometry" />
        </mxCell>
        <mxCell id="c9i3LPFv9_K7PuiOlfbB-131" style="edgeStyle=orthogonalEdgeStyle;rounded=0;orthogonalLoop=1;jettySize=auto;html=1;entryX=0;entryY=0.5;entryDx=0;entryDy=0;" edge="1" parent="c9i3LPFv9_K7PuiOlfbB-205" source="c9i3LPFv9_K7PuiOlfbB-124" target="c9i3LPFv9_K7PuiOlfbB-125">
          <mxGeometry relative="1" as="geometry" />
        </mxCell>
        <mxCell id="c9i3LPFv9_K7PuiOlfbB-130" style="edgeStyle=orthogonalEdgeStyle;rounded=0;orthogonalLoop=1;jettySize=auto;html=1;entryX=0.5;entryY=1;entryDx=0;entryDy=0;" edge="1" parent="c9i3LPFv9_K7PuiOlfbB-205" source="c9i3LPFv9_K7PuiOlfbB-128" target="c9i3LPFv9_K7PuiOlfbB-124">
          <mxGeometry relative="1" as="geometry" />
        </mxCell>
        <mxCell id="c9i3LPFv9_K7PuiOlfbB-128" value="Transpose stash of the Getattr in the Layer parent." style="rounded=0;whiteSpace=wrap;html=1;" vertex="1" parent="c9i3LPFv9_K7PuiOlfbB-205">
          <mxGeometry x="660" y="1420" width="120" height="60" as="geometry" />
        </mxCell>
        <mxCell id="c9i3LPFv9_K7PuiOlfbB-129" style="edgeStyle=orthogonalEdgeStyle;rounded=0;orthogonalLoop=1;jettySize=auto;html=1;exitX=0.5;exitY=1;exitDx=0;exitDy=0;entryX=0;entryY=0.5;entryDx=0;entryDy=0;" edge="1" parent="c9i3LPFv9_K7PuiOlfbB-205" source="c9i3LPFv9_K7PuiOlfbB-121" target="c9i3LPFv9_K7PuiOlfbB-128">
          <mxGeometry relative="1" as="geometry" />
        </mxCell>
        <mxCell id="c9i3LPFv9_K7PuiOlfbB-137" value="Yes" style="edgeLabel;html=1;align=center;verticalAlign=middle;resizable=0;points=[];" vertex="1" connectable="0" parent="c9i3LPFv9_K7PuiOlfbB-129">
          <mxGeometry x="-0.8933" y="2" relative="1" as="geometry">
            <mxPoint as="offset" />
          </mxGeometry>
        </mxCell>
        <mxCell id="c9i3LPFv9_K7PuiOlfbB-134" value="For each Layer object in the Layer dictionnary" style="rounded=0;whiteSpace=wrap;html=1;" vertex="1" parent="c9i3LPFv9_K7PuiOlfbB-205">
          <mxGeometry x="160" y="1510" width="120" height="60" as="geometry" />
        </mxCell>
        <mxCell id="c9i3LPFv9_K7PuiOlfbB-138" style="edgeStyle=orthogonalEdgeStyle;rounded=0;orthogonalLoop=1;jettySize=auto;html=1;exitX=0.5;exitY=1;exitDx=0;exitDy=0;entryX=0.5;entryY=0;entryDx=0;entryDy=0;" edge="1" parent="c9i3LPFv9_K7PuiOlfbB-205" source="c9i3LPFv9_K7PuiOlfbB-125" target="c9i3LPFv9_K7PuiOlfbB-134">
          <mxGeometry relative="1" as="geometry">
            <Array as="points">
              <mxPoint x="960" y="1490" />
              <mxPoint x="220" y="1490" />
            </Array>
          </mxGeometry>
        </mxCell>
        <mxCell id="c9i3LPFv9_K7PuiOlfbB-139" value="Yes" style="edgeLabel;html=1;align=center;verticalAlign=middle;resizable=0;points=[];" vertex="1" connectable="0" parent="c9i3LPFv9_K7PuiOlfbB-138">
          <mxGeometry x="-0.944" relative="1" as="geometry">
            <mxPoint as="offset" />
          </mxGeometry>
        </mxCell>
        <mxCell id="c9i3LPFv9_K7PuiOlfbB-140" value="For each pop parent in the Layer" style="rounded=0;whiteSpace=wrap;html=1;" vertex="1" parent="c9i3LPFv9_K7PuiOlfbB-205">
          <mxGeometry x="159" y="1630" width="120" height="60" as="geometry" />
        </mxCell>
        <mxCell id="c9i3LPFv9_K7PuiOlfbB-147" style="edgeStyle=orthogonalEdgeStyle;rounded=0;orthogonalLoop=1;jettySize=auto;html=1;exitX=0.5;exitY=1;exitDx=0;exitDy=0;" edge="1" parent="c9i3LPFv9_K7PuiOlfbB-205" source="c9i3LPFv9_K7PuiOlfbB-134" target="c9i3LPFv9_K7PuiOlfbB-140">
          <mxGeometry relative="1" as="geometry" />
        </mxCell>
        <mxCell id="c9i3LPFv9_K7PuiOlfbB-142" style="edgeStyle=orthogonalEdgeStyle;rounded=0;orthogonalLoop=1;jettySize=auto;html=1;exitX=0.5;exitY=0;exitDx=0;exitDy=0;entryX=1;entryY=0.5;entryDx=0;entryDy=0;" edge="1" parent="c9i3LPFv9_K7PuiOlfbB-205" source="c9i3LPFv9_K7PuiOlfbB-141" target="c9i3LPFv9_K7PuiOlfbB-134">
          <mxGeometry relative="1" as="geometry" />
        </mxCell>
        <mxCell id="c9i3LPFv9_K7PuiOlfbB-143" value="No" style="edgeLabel;html=1;align=center;verticalAlign=middle;resizable=0;points=[];" vertex="1" connectable="0" parent="c9i3LPFv9_K7PuiOlfbB-142">
          <mxGeometry x="-0.9366" y="2" relative="1" as="geometry">
            <mxPoint as="offset" />
          </mxGeometry>
        </mxCell>
        <mxCell id="c9i3LPFv9_K7PuiOlfbB-141" value="End of Layer dictionnary ?" style="rhombus;whiteSpace=wrap;html=1;" vertex="1" parent="c9i3LPFv9_K7PuiOlfbB-205">
          <mxGeometry x="880" y="1605" width="120" height="110" as="geometry" />
        </mxCell>
        <mxCell id="c9i3LPFv9_K7PuiOlfbB-144" value="Start repartition of Layers tests" style="rounded=0;whiteSpace=wrap;html=1;" vertex="1" parent="c9i3LPFv9_K7PuiOlfbB-205">
          <mxGeometry x="1140" y="1630" width="120" height="60" as="geometry" />
        </mxCell>
        <mxCell id="c9i3LPFv9_K7PuiOlfbB-145" style="edgeStyle=orthogonalEdgeStyle;rounded=0;orthogonalLoop=1;jettySize=auto;html=1;exitX=1;exitY=0.5;exitDx=0;exitDy=0;entryX=0;entryY=0.5;entryDx=0;entryDy=0;" edge="1" parent="c9i3LPFv9_K7PuiOlfbB-205" source="c9i3LPFv9_K7PuiOlfbB-141" target="c9i3LPFv9_K7PuiOlfbB-144">
          <mxGeometry relative="1" as="geometry" />
        </mxCell>
        <mxCell id="c9i3LPFv9_K7PuiOlfbB-146" value="Yes" style="edgeLabel;html=1;align=center;verticalAlign=middle;resizable=0;points=[];" vertex="1" connectable="0" parent="c9i3LPFv9_K7PuiOlfbB-145">
          <mxGeometry x="-0.6137" relative="1" as="geometry">
            <mxPoint as="offset" />
          </mxGeometry>
        </mxCell>
        <mxCell id="c9i3LPFv9_K7PuiOlfbB-148" value="&lt;h1&gt;Pop&lt;/h1&gt;&lt;p&gt;A pop means that the result of an other Layer further than the direct parent is needed&lt;br&gt;&lt;/p&gt;" style="text;html=1;strokeColor=none;fillColor=none;spacing=5;spacingTop=-20;whiteSpace=wrap;overflow=hidden;rounded=0;" vertex="1" parent="c9i3LPFv9_K7PuiOlfbB-205">
          <mxGeometry x="10" y="1605" width="150" height="110" as="geometry" />
        </mxCell>
        <mxCell id="c9i3LPFv9_K7PuiOlfbB-149" value="Define the stash at the parent of the Layer" style="rounded=0;whiteSpace=wrap;html=1;" vertex="1" parent="c9i3LPFv9_K7PuiOlfbB-205">
          <mxGeometry x="365" y="1630" width="120" height="60" as="geometry" />
        </mxCell>
        <mxCell id="c9i3LPFv9_K7PuiOlfbB-150" style="edgeStyle=orthogonalEdgeStyle;rounded=0;orthogonalLoop=1;jettySize=auto;html=1;exitX=1;exitY=0.5;exitDx=0;exitDy=0;entryX=0;entryY=0.5;entryDx=0;entryDy=0;" edge="1" parent="c9i3LPFv9_K7PuiOlfbB-205" source="c9i3LPFv9_K7PuiOlfbB-140" target="c9i3LPFv9_K7PuiOlfbB-149">
          <mxGeometry relative="1" as="geometry" />
        </mxCell>
        <mxCell id="c9i3LPFv9_K7PuiOlfbB-152" style="edgeStyle=orthogonalEdgeStyle;rounded=0;orthogonalLoop=1;jettySize=auto;html=1;exitX=1;exitY=0.5;exitDx=0;exitDy=0;" edge="1" parent="c9i3LPFv9_K7PuiOlfbB-205" source="c9i3LPFv9_K7PuiOlfbB-151" target="c9i3LPFv9_K7PuiOlfbB-141">
          <mxGeometry relative="1" as="geometry" />
        </mxCell>
        <mxCell id="c9i3LPFv9_K7PuiOlfbB-153" value="Yes" style="edgeLabel;html=1;align=center;verticalAlign=middle;resizable=0;points=[];" vertex="1" connectable="0" parent="c9i3LPFv9_K7PuiOlfbB-152">
          <mxGeometry x="-0.7632" y="2" relative="1" as="geometry">
            <mxPoint as="offset" />
          </mxGeometry>
        </mxCell>
        <mxCell id="c9i3LPFv9_K7PuiOlfbB-154" style="edgeStyle=orthogonalEdgeStyle;rounded=0;orthogonalLoop=1;jettySize=auto;html=1;exitX=0.5;exitY=0;exitDx=0;exitDy=0;entryX=0.75;entryY=0;entryDx=0;entryDy=0;" edge="1" parent="c9i3LPFv9_K7PuiOlfbB-205" source="c9i3LPFv9_K7PuiOlfbB-151" target="c9i3LPFv9_K7PuiOlfbB-140">
          <mxGeometry relative="1" as="geometry" />
        </mxCell>
        <mxCell id="c9i3LPFv9_K7PuiOlfbB-155" value="No" style="edgeLabel;html=1;align=center;verticalAlign=middle;resizable=0;points=[];" vertex="1" connectable="0" parent="c9i3LPFv9_K7PuiOlfbB-154">
          <mxGeometry x="-0.8729" relative="1" as="geometry">
            <mxPoint x="7" as="offset" />
          </mxGeometry>
        </mxCell>
        <mxCell id="c9i3LPFv9_K7PuiOlfbB-151" value="&lt;div&gt;End of pop list&lt;/div&gt;" style="rhombus;whiteSpace=wrap;html=1;" vertex="1" parent="c9i3LPFv9_K7PuiOlfbB-205">
          <mxGeometry x="570" y="1605" width="120" height="110" as="geometry" />
        </mxCell>
        <mxCell id="c9i3LPFv9_K7PuiOlfbB-156" style="edgeStyle=orthogonalEdgeStyle;rounded=0;orthogonalLoop=1;jettySize=auto;html=1;exitX=1;exitY=0.5;exitDx=0;exitDy=0;entryX=0;entryY=0.5;entryDx=0;entryDy=0;" edge="1" parent="c9i3LPFv9_K7PuiOlfbB-205" source="c9i3LPFv9_K7PuiOlfbB-149" target="c9i3LPFv9_K7PuiOlfbB-151">
          <mxGeometry relative="1" as="geometry" />
        </mxCell>
        <mxCell id="c9i3LPFv9_K7PuiOlfbB-157" value="Write all import needed in the destination file of the reinterpreted model." style="rounded=0;whiteSpace=wrap;html=1;" vertex="1" parent="c9i3LPFv9_K7PuiOlfbB-205">
          <mxGeometry x="1140" y="1510" width="120" height="60" as="geometry" />
        </mxCell>
        <mxCell id="c9i3LPFv9_K7PuiOlfbB-158" style="edgeStyle=orthogonalEdgeStyle;rounded=0;orthogonalLoop=1;jettySize=auto;html=1;exitX=0.5;exitY=0;exitDx=0;exitDy=0;entryX=0.5;entryY=1;entryDx=0;entryDy=0;" edge="1" parent="c9i3LPFv9_K7PuiOlfbB-205" source="c9i3LPFv9_K7PuiOlfbB-144" target="c9i3LPFv9_K7PuiOlfbB-157">
          <mxGeometry relative="1" as="geometry" />
        </mxCell>
        <mxCell id="c9i3LPFv9_K7PuiOlfbB-159" value="Calculate a basic repartition based on : Number of layer / nbumber of gpu" style="rounded=0;whiteSpace=wrap;html=1;" vertex="1" parent="c9i3LPFv9_K7PuiOlfbB-205">
          <mxGeometry x="1140" y="1400" width="120" height="60" as="geometry" />
        </mxCell>
        <mxCell id="c9i3LPFv9_K7PuiOlfbB-160" style="edgeStyle=orthogonalEdgeStyle;rounded=0;orthogonalLoop=1;jettySize=auto;html=1;exitX=0.5;exitY=0;exitDx=0;exitDy=0;entryX=0.5;entryY=1;entryDx=0;entryDy=0;" edge="1" parent="c9i3LPFv9_K7PuiOlfbB-205" source="c9i3LPFv9_K7PuiOlfbB-157" target="c9i3LPFv9_K7PuiOlfbB-159">
          <mxGeometry relative="1" as="geometry" />
        </mxCell>
        <mxCell id="c9i3LPFv9_K7PuiOlfbB-161" value="Set the repartition and write all layers in the destination file" style="rounded=0;whiteSpace=wrap;html=1;" vertex="1" parent="c9i3LPFv9_K7PuiOlfbB-205">
          <mxGeometry x="1140" y="1280" width="120" height="60" as="geometry" />
        </mxCell>
        <mxCell id="c9i3LPFv9_K7PuiOlfbB-162" style="edgeStyle=orthogonalEdgeStyle;rounded=0;orthogonalLoop=1;jettySize=auto;html=1;exitX=0.5;exitY=0;exitDx=0;exitDy=0;entryX=0.5;entryY=1;entryDx=0;entryDy=0;" edge="1" parent="c9i3LPFv9_K7PuiOlfbB-205" source="c9i3LPFv9_K7PuiOlfbB-159" target="c9i3LPFv9_K7PuiOlfbB-161">
          <mxGeometry relative="1" as="geometry" />
        </mxCell>
        <mxCell id="c9i3LPFv9_K7PuiOlfbB-163" value="&lt;div&gt;First or last GPU&amp;nbsp;&lt;/div&gt;&lt;div&gt;have only 1 layer ?&lt;/div&gt;" style="rhombus;whiteSpace=wrap;html=1;" vertex="1" parent="c9i3LPFv9_K7PuiOlfbB-205">
          <mxGeometry x="1356.5" y="1256.25" width="123.5" height="107.5" as="geometry" />
        </mxCell>
        <mxCell id="c9i3LPFv9_K7PuiOlfbB-164" style="edgeStyle=orthogonalEdgeStyle;rounded=0;orthogonalLoop=1;jettySize=auto;html=1;exitX=1;exitY=0.5;exitDx=0;exitDy=0;entryX=0;entryY=0.5;entryDx=0;entryDy=0;" edge="1" parent="c9i3LPFv9_K7PuiOlfbB-205" source="c9i3LPFv9_K7PuiOlfbB-161" target="c9i3LPFv9_K7PuiOlfbB-163">
          <mxGeometry relative="1" as="geometry" />
        </mxCell>
        <mxCell id="c9i3LPFv9_K7PuiOlfbB-165" value="Throw exception: This is not handled and the execution of the model will end in error" style="rounded=0;whiteSpace=wrap;html=1;" vertex="1" parent="c9i3LPFv9_K7PuiOlfbB-205">
          <mxGeometry x="1540" y="1180" width="120" height="60" as="geometry" />
        </mxCell>
        <mxCell id="c9i3LPFv9_K7PuiOlfbB-166" style="edgeStyle=orthogonalEdgeStyle;rounded=0;orthogonalLoop=1;jettySize=auto;html=1;exitX=0.5;exitY=0;exitDx=0;exitDy=0;entryX=0;entryY=0.5;entryDx=0;entryDy=0;" edge="1" parent="c9i3LPFv9_K7PuiOlfbB-205" source="c9i3LPFv9_K7PuiOlfbB-163" target="c9i3LPFv9_K7PuiOlfbB-165">
          <mxGeometry relative="1" as="geometry" />
        </mxCell>
        <mxCell id="c9i3LPFv9_K7PuiOlfbB-167" value="Yes" style="edgeLabel;html=1;align=center;verticalAlign=middle;resizable=0;points=[];" vertex="1" connectable="0" parent="c9i3LPFv9_K7PuiOlfbB-166">
          <mxGeometry x="-0.7646" y="-1" relative="1" as="geometry">
            <mxPoint as="offset" />
          </mxGeometry>
        </mxCell>
        <mxCell id="c9i3LPFv9_K7PuiOlfbB-168" value="&lt;div&gt;At least one&amp;nbsp;&lt;/div&gt;&lt;div&gt;GPU have 0 layer ?&lt;/div&gt;" style="rhombus;whiteSpace=wrap;html=1;" vertex="1" parent="c9i3LPFv9_K7PuiOlfbB-205">
          <mxGeometry x="1536.5" y="1256.25" width="123.5" height="107.5" as="geometry" />
        </mxCell>
        <mxCell id="c9i3LPFv9_K7PuiOlfbB-169" style="edgeStyle=orthogonalEdgeStyle;rounded=0;orthogonalLoop=1;jettySize=auto;html=1;exitX=1;exitY=0.5;exitDx=0;exitDy=0;entryX=0;entryY=0.5;entryDx=0;entryDy=0;" edge="1" parent="c9i3LPFv9_K7PuiOlfbB-205" source="c9i3LPFv9_K7PuiOlfbB-163" target="c9i3LPFv9_K7PuiOlfbB-168">
          <mxGeometry relative="1" as="geometry" />
        </mxCell>
        <mxCell id="c9i3LPFv9_K7PuiOlfbB-170" value="No" style="edgeLabel;html=1;align=center;verticalAlign=middle;resizable=0;points=[];" vertex="1" connectable="0" parent="c9i3LPFv9_K7PuiOlfbB-169">
          <mxGeometry x="0.2106" y="-1" relative="1" as="geometry">
            <mxPoint x="-14" y="-1" as="offset" />
          </mxGeometry>
        </mxCell>
        <mxCell id="c9i3LPFv9_K7PuiOlfbB-171" value="Throw exception: This make no sense to have 0 layer in one GPU it means that your model don&#39;t need as many GPU " style="rounded=0;whiteSpace=wrap;html=1;" vertex="1" parent="c9i3LPFv9_K7PuiOlfbB-205">
          <mxGeometry x="1740" y="1180" width="120" height="90" as="geometry" />
        </mxCell>
        <mxCell id="c9i3LPFv9_K7PuiOlfbB-172" style="edgeStyle=orthogonalEdgeStyle;rounded=0;orthogonalLoop=1;jettySize=auto;html=1;exitX=1;exitY=0.5;exitDx=0;exitDy=0;entryX=0;entryY=0.5;entryDx=0;entryDy=0;" edge="1" parent="c9i3LPFv9_K7PuiOlfbB-205" source="c9i3LPFv9_K7PuiOlfbB-168" target="c9i3LPFv9_K7PuiOlfbB-171">
          <mxGeometry relative="1" as="geometry" />
        </mxCell>
        <mxCell id="c9i3LPFv9_K7PuiOlfbB-173" value="Yes" style="edgeLabel;html=1;align=center;verticalAlign=middle;resizable=0;points=[];" vertex="1" connectable="0" parent="c9i3LPFv9_K7PuiOlfbB-172">
          <mxGeometry x="-0.6378" relative="1" as="geometry">
            <mxPoint x="7" as="offset" />
          </mxGeometry>
        </mxCell>
        <mxCell id="c9i3LPFv9_K7PuiOlfbB-174" value="Run the created model on N GPU and parse memory" style="rounded=0;whiteSpace=wrap;html=1;" vertex="1" parent="c9i3LPFv9_K7PuiOlfbB-205">
          <mxGeometry x="1356.5" y="1430" width="120" height="60" as="geometry" />
        </mxCell>
        <mxCell id="c9i3LPFv9_K7PuiOlfbB-175" style="edgeStyle=orthogonalEdgeStyle;rounded=0;orthogonalLoop=1;jettySize=auto;html=1;exitX=0.5;exitY=1;exitDx=0;exitDy=0;entryX=0.5;entryY=0;entryDx=0;entryDy=0;" edge="1" parent="c9i3LPFv9_K7PuiOlfbB-205" source="c9i3LPFv9_K7PuiOlfbB-168" target="c9i3LPFv9_K7PuiOlfbB-174">
          <mxGeometry relative="1" as="geometry" />
        </mxCell>
        <mxCell id="c9i3LPFv9_K7PuiOlfbB-176" value="No" style="edgeLabel;html=1;align=center;verticalAlign=middle;resizable=0;points=[];" vertex="1" connectable="0" parent="c9i3LPFv9_K7PuiOlfbB-175">
          <mxGeometry x="-0.4419" y="-1" relative="1" as="geometry">
            <mxPoint x="34" as="offset" />
          </mxGeometry>
        </mxCell>
        <mxCell id="c9i3LPFv9_K7PuiOlfbB-177" value="&lt;h1&gt;Configuration&lt;/h1&gt;&lt;p&gt;The tool needs some specific config to be able to work :&lt;br&gt;input shape, output shape, data type of the output and, if prensent, multihead parameters&lt;br&gt;&lt;/p&gt;" style="text;html=1;strokeColor=none;fillColor=none;spacing=5;spacingTop=-20;whiteSpace=wrap;overflow=hidden;rounded=0;" vertex="1" parent="c9i3LPFv9_K7PuiOlfbB-205">
          <mxGeometry x="305" width="190" height="120" as="geometry" />
        </mxCell>
        <mxCell id="c9i3LPFv9_K7PuiOlfbB-179" value="&lt;h1&gt;getitem&lt;/h1&gt;&lt;p&gt;Correspond to an access of a specific index of a result. For example t.shape&lt;b&gt;[0].&lt;/b&gt;&lt;br&gt;&lt;/p&gt;" style="text;html=1;strokeColor=none;fillColor=none;spacing=5;spacingTop=-20;whiteSpace=wrap;overflow=hidden;rounded=0;" vertex="1" parent="c9i3LPFv9_K7PuiOlfbB-205">
          <mxGeometry x="537.5" y="320" width="190" height="120" as="geometry" />
        </mxCell>
        <mxCell id="c9i3LPFv9_K7PuiOlfbB-180" value="&lt;h1&gt;getattr&lt;/h1&gt;&lt;p&gt;Is an access to a specific attribute of a tensor for example t&lt;b&gt;.shape&lt;/b&gt;. It return a non tensor value and indeed cannot be a standalone Layer.&lt;br&gt;&lt;/p&gt;" style="text;html=1;strokeColor=none;fillColor=none;spacing=5;spacingTop=-20;whiteSpace=wrap;overflow=hidden;rounded=0;" vertex="1" parent="c9i3LPFv9_K7PuiOlfbB-205">
          <mxGeometry x="535" y="480" width="190" height="120" as="geometry" />
        </mxCell>
        <mxCell id="c9i3LPFv9_K7PuiOlfbB-181" value="&lt;h1&gt;call_module&lt;/h1&gt;&lt;p&gt;Are layers containing a declaration of a module implemented by torch.nn API. For example &lt;b&gt;torch.nn.Linear()&lt;/b&gt;&lt;br&gt;&lt;/p&gt;" style="text;html=1;strokeColor=none;fillColor=none;spacing=5;spacingTop=-20;whiteSpace=wrap;overflow=hidden;rounded=0;" vertex="1" parent="c9i3LPFv9_K7PuiOlfbB-205">
          <mxGeometry x="535" y="640" width="190" height="120" as="geometry" />
        </mxCell>
        <mxCell id="c9i3LPFv9_K7PuiOlfbB-182" value="&lt;h1&gt;call_function&lt;/h1&gt;&lt;p&gt;Are layers containing a function of the API torch applied on tensor. For example &lt;b&gt;flatten()&lt;/b&gt;&lt;br&gt;&lt;/p&gt;" style="text;html=1;strokeColor=none;fillColor=none;spacing=5;spacingTop=-20;whiteSpace=wrap;overflow=hidden;rounded=0;" vertex="1" parent="c9i3LPFv9_K7PuiOlfbB-205">
          <mxGeometry x="535" y="800" width="190" height="120" as="geometry" />
        </mxCell>
        <mxCell id="c9i3LPFv9_K7PuiOlfbB-183" value="&lt;h1&gt;Propagation&lt;/h1&gt;&lt;p&gt;Sometime layers traced does nothing and have just to push forward the tensor.&lt;br&gt;&lt;/p&gt;" style="text;html=1;strokeColor=none;fillColor=none;spacing=5;spacingTop=-20;whiteSpace=wrap;overflow=hidden;rounded=0;" vertex="1" parent="c9i3LPFv9_K7PuiOlfbB-205">
          <mxGeometry x="535" y="1090" width="190" height="120" as="geometry" />
        </mxCell>
        <mxCell id="c9i3LPFv9_K7PuiOlfbB-184" value="&lt;h1&gt;get_attr&lt;/h1&gt;&lt;p&gt;Are layers that create specific self object in the model traced. It will create this attribute and propagate it.&lt;br&gt;&lt;/p&gt;" style="text;html=1;strokeColor=none;fillColor=none;spacing=5;spacingTop=-20;whiteSpace=wrap;overflow=hidden;rounded=0;" vertex="1" parent="c9i3LPFv9_K7PuiOlfbB-205">
          <mxGeometry x="530" y="960" width="190" height="120" as="geometry" />
        </mxCell>
        <mxCell id="c9i3LPFv9_K7PuiOlfbB-187" value="&lt;div&gt;Is memory well&amp;nbsp;&lt;/div&gt;&lt;div&gt;balanced ? (20% MB difference&amp;nbsp;&lt;/div&gt;&lt;div&gt;between GPUs)&lt;/div&gt;" style="rhombus;whiteSpace=wrap;html=1;" vertex="1" parent="c9i3LPFv9_K7PuiOlfbB-205">
          <mxGeometry x="1332" y="1560" width="168.25" height="130" as="geometry" />
        </mxCell>
        <mxCell id="c9i3LPFv9_K7PuiOlfbB-188" style="edgeStyle=orthogonalEdgeStyle;rounded=0;orthogonalLoop=1;jettySize=auto;html=1;exitX=0.5;exitY=1;exitDx=0;exitDy=0;" edge="1" parent="c9i3LPFv9_K7PuiOlfbB-205" source="c9i3LPFv9_K7PuiOlfbB-174" target="c9i3LPFv9_K7PuiOlfbB-187">
          <mxGeometry relative="1" as="geometry" />
        </mxCell>
        <mxCell id="c9i3LPFv9_K7PuiOlfbB-190" value="Rebalance layer reaprtition" style="rounded=0;whiteSpace=wrap;html=1;" vertex="1" parent="c9i3LPFv9_K7PuiOlfbB-205">
          <mxGeometry x="1620" y="1595" width="120" height="60" as="geometry" />
        </mxCell>
        <mxCell id="c9i3LPFv9_K7PuiOlfbB-191" style="edgeStyle=orthogonalEdgeStyle;rounded=0;orthogonalLoop=1;jettySize=auto;html=1;exitX=1;exitY=0.5;exitDx=0;exitDy=0;entryX=0;entryY=0.5;entryDx=0;entryDy=0;" edge="1" parent="c9i3LPFv9_K7PuiOlfbB-205" source="c9i3LPFv9_K7PuiOlfbB-187" target="c9i3LPFv9_K7PuiOlfbB-190">
          <mxGeometry relative="1" as="geometry" />
        </mxCell>
        <mxCell id="c9i3LPFv9_K7PuiOlfbB-192" value="No" style="edgeLabel;html=1;align=center;verticalAlign=middle;resizable=0;points=[];" vertex="1" connectable="0" parent="c9i3LPFv9_K7PuiOlfbB-191">
          <mxGeometry x="-0.7091" y="1" relative="1" as="geometry">
            <mxPoint as="offset" />
          </mxGeometry>
        </mxCell>
        <mxCell id="c9i3LPFv9_K7PuiOlfbB-194" value="&lt;div&gt;Repartiton already&amp;nbsp;&lt;/div&gt;&lt;div&gt;tested ?&lt;/div&gt;" style="rhombus;whiteSpace=wrap;html=1;" vertex="1" parent="c9i3LPFv9_K7PuiOlfbB-205">
          <mxGeometry x="1618" y="1440" width="124.13" height="110" as="geometry" />
        </mxCell>
        <mxCell id="c9i3LPFv9_K7PuiOlfbB-195" style="edgeStyle=orthogonalEdgeStyle;rounded=0;orthogonalLoop=1;jettySize=auto;html=1;exitX=0.5;exitY=0;exitDx=0;exitDy=0;entryX=0.5;entryY=1;entryDx=0;entryDy=0;" edge="1" parent="c9i3LPFv9_K7PuiOlfbB-205" source="c9i3LPFv9_K7PuiOlfbB-190" target="c9i3LPFv9_K7PuiOlfbB-194">
          <mxGeometry relative="1" as="geometry" />
        </mxCell>
        <mxCell id="c9i3LPFv9_K7PuiOlfbB-196" value="Keep this repartition" style="rounded=0;whiteSpace=wrap;html=1;" vertex="1" parent="c9i3LPFv9_K7PuiOlfbB-205">
          <mxGeometry x="1780" y="1465" width="120" height="60" as="geometry" />
        </mxCell>
        <mxCell id="c9i3LPFv9_K7PuiOlfbB-197" style="edgeStyle=orthogonalEdgeStyle;rounded=0;orthogonalLoop=1;jettySize=auto;html=1;exitX=1;exitY=0.5;exitDx=0;exitDy=0;entryX=0;entryY=0.5;entryDx=0;entryDy=0;" edge="1" parent="c9i3LPFv9_K7PuiOlfbB-205" source="c9i3LPFv9_K7PuiOlfbB-194" target="c9i3LPFv9_K7PuiOlfbB-196">
          <mxGeometry relative="1" as="geometry" />
        </mxCell>
        <mxCell id="c9i3LPFv9_K7PuiOlfbB-198" value="Yes" style="edgeLabel;html=1;align=center;verticalAlign=middle;resizable=0;points=[];" vertex="1" connectable="0" parent="c9i3LPFv9_K7PuiOlfbB-197">
          <mxGeometry x="-0.2675" y="-1" relative="1" as="geometry">
            <mxPoint as="offset" />
          </mxGeometry>
        </mxCell>
        <mxCell id="c9i3LPFv9_K7PuiOlfbB-199" style="edgeStyle=orthogonalEdgeStyle;rounded=0;orthogonalLoop=1;jettySize=auto;html=1;exitX=0;exitY=0.5;exitDx=0;exitDy=0;entryX=0.996;entryY=0.428;entryDx=0;entryDy=0;entryPerimeter=0;" edge="1" parent="c9i3LPFv9_K7PuiOlfbB-205" source="c9i3LPFv9_K7PuiOlfbB-194" target="c9i3LPFv9_K7PuiOlfbB-174">
          <mxGeometry relative="1" as="geometry" />
        </mxCell>
        <mxCell id="c9i3LPFv9_K7PuiOlfbB-200" value="No" style="edgeLabel;html=1;align=center;verticalAlign=middle;resizable=0;points=[];" vertex="1" connectable="0" parent="c9i3LPFv9_K7PuiOlfbB-199">
          <mxGeometry x="-0.2423" relative="1" as="geometry">
            <mxPoint as="offset" />
          </mxGeometry>
        </mxCell>
        <mxCell id="c9i3LPFv9_K7PuiOlfbB-201" value="End of programm" style="rounded=0;whiteSpace=wrap;html=1;" vertex="1" parent="c9i3LPFv9_K7PuiOlfbB-205">
          <mxGeometry x="1760" y="1670" width="120" height="60" as="geometry" />
        </mxCell>
        <mxCell id="c9i3LPFv9_K7PuiOlfbB-203" style="edgeStyle=orthogonalEdgeStyle;rounded=0;orthogonalLoop=1;jettySize=auto;html=1;exitX=0.5;exitY=1;exitDx=0;exitDy=0;entryX=0;entryY=0.5;entryDx=0;entryDy=0;" edge="1" parent="c9i3LPFv9_K7PuiOlfbB-205" source="c9i3LPFv9_K7PuiOlfbB-187" target="c9i3LPFv9_K7PuiOlfbB-201">
          <mxGeometry relative="1" as="geometry" />
        </mxCell>
        <mxCell id="c9i3LPFv9_K7PuiOlfbB-204" value="Yes" style="edgeLabel;html=1;align=center;verticalAlign=middle;resizable=0;points=[];" vertex="1" connectable="0" parent="c9i3LPFv9_K7PuiOlfbB-203">
          <mxGeometry x="-0.8223" y="1" relative="1" as="geometry">
            <mxPoint as="offset" />
          </mxGeometry>
        </mxCell>
        <mxCell id="c9i3LPFv9_K7PuiOlfbB-202" style="edgeStyle=orthogonalEdgeStyle;rounded=0;orthogonalLoop=1;jettySize=auto;html=1;exitX=0.5;exitY=1;exitDx=0;exitDy=0;entryX=0.5;entryY=0;entryDx=0;entryDy=0;" edge="1" parent="c9i3LPFv9_K7PuiOlfbB-205" source="c9i3LPFv9_K7PuiOlfbB-196" target="c9i3LPFv9_K7PuiOlfbB-201">
          <mxGeometry relative="1" as="geometry" />
        </mxCell>
      </root>
    </mxGraphModel>
  </diagram>
</mxfile>
